<svg width="19" height="17" viewBox="0 0 19 17" fill="none" xmlns="http://www.w3.org/2000/svg">
<path d="M12 6.5L11.507 6.418C11.4951 6.4896 11.4989 6.56293 11.5182 6.6329C11.5375 6.70287 11.5718 6.7678 11.6187 6.82318C11.6656 6.87856 11.724 6.92306 11.7899 6.9536C11.8557 6.98413 11.9274 6.99997 12 7V6.5ZM1 6.5V6C0.867392 6 0.740215 6.05268 0.646447 6.14645C0.552679 6.24021 0.5 6.36739 0.5 6.5H1ZM3 17H14.36V16H3V17ZM15.56 6H12V7H15.56V6ZM12.493 6.582L13.299 1.747L12.313 1.582L11.507 6.418L12.493 6.582ZM11.82 3.91646e-08H11.607V1H11.82V3.91646e-08ZM8.694 1.559L6.178 5.332L7.01 5.887L9.525 2.113L8.693 1.559H8.694ZM4.93 6H1V7H4.93V6ZM0.5 6.5V14.5H1.5V6.5H0.5ZM16.812 14.99L18.012 8.99L17.032 8.794L15.832 14.794L16.812 14.99ZM6.178 5.332C6.04103 5.53747 5.85546 5.70594 5.63775 5.82247C5.42004 5.939 5.17693 5.99998 4.93 6V7C5.34153 7.00001 5.74669 6.89842 6.10954 6.70427C6.47238 6.51011 6.78169 6.22938 7.01 5.887L6.178 5.332ZM13.299 1.747C13.3349 1.53214 13.3235 1.31203 13.2657 1.102C13.2079 0.891973 13.1051 0.697052 12.9643 0.530793C12.8236 0.364534 12.6483 0.230927 12.4507 0.139263C12.253 0.0475986 12.0378 7.61222e-05 11.82 3.91646e-08V1C11.8927 0.999888 11.9645 1.01562 12.0304 1.04609C12.0964 1.07656 12.1549 1.12104 12.202 1.17644C12.249 1.23184 12.2834 1.29682 12.3027 1.36686C12.3221 1.4369 12.3259 1.51032 12.314 1.582L13.299 1.747ZM15.56 7C15.7819 6.99999 16.0011 7.04921 16.2017 7.14413C16.4023 7.23906 16.5793 7.3773 16.72 7.54891C16.8607 7.72052 16.9616 7.92121 17.0154 8.13652C17.0692 8.35183 17.0755 8.57638 17.032 8.794L18.012 8.99C18.0845 8.62744 18.0746 8.25333 17.9851 7.8946C17.8955 7.53588 17.7276 7.20148 17.4932 6.9155C17.2589 6.62951 16.964 6.39907 16.6299 6.24076C16.2958 6.08245 15.9307 6.00022 15.561 6V7H15.56ZM14.36 17C14.9381 17.0001 15.4983 16.7999 15.9454 16.4334C16.3925 16.0669 16.6987 15.5569 16.812 14.99L15.832 14.794C15.764 15.1343 15.5801 15.4404 15.3117 15.6603C15.0433 15.8802 14.707 16.0003 14.36 16V17ZM11.606 3.91646e-08C11.0296 -8.61765e-05 10.4621 0.142173 9.95397 0.414143C9.44579 0.686113 9.01264 1.07937 8.693 1.559L9.525 2.113C9.75331 1.77062 10.0626 1.48989 10.4255 1.29573C10.7883 1.10158 11.1935 0.999993 11.605 1V3.91646e-08H11.606ZM3 16C2.60218 16 2.22064 15.842 1.93934 15.5607C1.65804 15.2794 1.5 14.8978 1.5 14.5H0.5C0.5 14.8283 0.564664 15.1534 0.690301 15.4567C0.815938 15.76 1.00009 16.0356 1.23223 16.2678C1.46438 16.4999 1.73998 16.6841 2.04329 16.8097C2.34661 16.9353 2.6717 17 3 17V16Z" fill="#160F29" fill-opacity="0.5"/>
</svg>
