<svg width="42" height="42" viewBox="0 0 42 42" fill="none" xmlns="http://www.w3.org/2000/svg">
<path d="M21 41C32.0457 41 41 32.0457 41 21C41 9.9543 32.0457 1 21 1C9.9543 1 1 9.9543 1 21C1 32.0457 9.9543 41 21 41Z" stroke="#160F29" stroke-width="0.8" stroke-miterlimit="10"/>
<path d="M19.7828 8.73842C21.1695 8.76358 22.5672 8.58313 23.9386 8.89481C25.3039 9.21283 26.5232 9.97958 27.4013 11.0724C28.2794 12.1652 28.7656 13.521 28.7822 14.9228C28.7887 15.6599 28.792 16.3959 28.7822 17.1319C28.7822 17.3616 28.8347 17.4534 29.084 17.4994C31.2078 17.8832 32.3649 20.0661 31.5042 22.063C30.696 23.9375 29.7861 25.7725 29.0556 27.6765C27.5005 31.7327 27.0269 35.8075 27.5781 39.8922" stroke="#160F29" stroke-width="0.8" stroke-miterlimit="10"/>
<path d="M18.3217 32.7781C19.0774 32.9148 19.8167 33.1532 20.5986 33.1062C21.6322 33.1671 22.6684 33.0472 23.6607 32.7519C25.7616 32.1548 26.7929 30.4903 26.4549 28.3381C26.1465 26.3783 25.8852 24.4109 25.603 22.4468C26.199 22.3833 26.6102 22.0826 26.8191 21.5139C27.1023 20.7418 26.4998 19.6056 25.2607 19.7773C25.0945 19.4404 25.1327 19.0631 25.0507 18.7088C24.8823 17.9826 24.2404 17.7136 23.629 18.1336C23.2018 18.4479 22.7145 18.6712 22.1975 18.7897C21.2921 18.9764 20.3556 18.9475 19.4635 18.7055C19.0735 18.5168 18.6942 18.3069 18.3272 18.0767C17.7804 17.7289 17.1417 18.01 16.9919 18.6377C16.9262 18.9159 16.8805 19.1984 16.8552 19.4831C16.8344 19.7149 16.7458 19.8035 16.5151 19.7444C16.5971 19.0314 16.7743 18.3534 17.227 17.7759C17.6065 17.2904 17.7126 16.7184 17.7355 16.1268C17.7465 15.8392 17.7465 15.5515 17.7454 15.2639" stroke="#160F29" stroke-width="0.8" stroke-miterlimit="10"/>
<path d="M17.7421 15.2595C17.7421 15.5471 17.7421 15.8348 17.7323 16.1224C17.7093 16.714 17.6033 17.286 17.2238 17.7716C16.771 18.3501 16.5939 19.0281 16.5118 19.7401C16.4845 19.7455 16.4582 19.7532 16.432 19.7576C15.6719 19.8582 15.1951 20.3131 15.1339 20.9955C15.0759 21.6364 15.462 22.1733 16.1936 22.3964C16.4243 22.4675 16.4025 22.5824 16.3762 22.7584C16.0963 24.6438 15.8403 26.5314 15.5396 28.4124C15.3493 29.6023 15.5987 30.651 16.3686 31.5751C16.8848 32.1952 17.5847 32.5167 18.3218 32.7781" stroke="#160F29" stroke-width="0.8" stroke-miterlimit="10"/>
<path d="M14.4328 39.8966C14.4328 39.8813 14.4328 39.867 14.4383 39.8528C14.6223 38.3812 14.6805 36.8965 14.6122 35.4149C14.5028 33.243 13.9363 29.551 12.1373 25.731C11.5654 24.5149 11.0251 23.2835 10.4969 22.0488C10.2924 21.5944 10.1947 21.0991 10.2112 20.6011C10.2277 20.103 10.3581 19.6153 10.5922 19.1754C10.8264 18.7355 11.1581 18.3551 11.562 18.0632C11.966 17.7714 12.4314 17.5759 12.9225 17.4917C13.1795 17.4436 13.2506 17.332 13.243 17.0849C13.2298 16.268 13.208 15.4445 13.243 14.633C13.4114 11.0755 16.5829 8.50003 19.7839 8.73844" stroke="#160F29" stroke-width="0.8" stroke-miterlimit="10"/>
<path d="M25.6052 22.4327C25.4805 21.5447 25.2869 20.6643 25.2629 19.7621C26.5019 19.5915 27.1045 20.7277 26.8213 21.4998C26.6124 22.0696 26.2012 22.3703 25.6052 22.4327Z" stroke="#160F29" stroke-width="0.8" stroke-miterlimit="10"/>
<path d="M24.8626 23.9145C24.8265 24.5007 24.6636 25.0518 24.2415 25.498C24.0883 25.6599 23.9057 25.7988 23.6662 25.7244C23.4267 25.65 23.3327 25.4182 23.302 25.1776C23.2203 24.6061 23.3527 24.0246 23.6739 23.5448C23.8609 23.2605 24.0807 22.9302 24.481 23.0658C24.8473 23.1938 24.8331 23.5733 24.8626 23.9145Z" stroke="#160F29" stroke-width="0.8" stroke-miterlimit="10"/>
<path d="M18.78 25.1042C18.7656 25.2303 18.7444 25.3555 18.7165 25.4793C18.5908 25.9562 18.2354 26.0666 17.8613 25.7516C17.3572 25.3273 17.0477 24.284 17.2402 23.6596C17.3878 23.1806 17.7246 23.0789 18.0965 23.4223C18.5755 23.8652 18.7242 24.4524 18.78 25.1042Z" stroke="#160F29" stroke-width="0.8" stroke-miterlimit="10"/>
<path d="M17.7421 15.2597C20.8545 15.2597 23.9677 15.2597 27.0816 15.2597C27.6387 15.2423 28.1928 15.3464 28.7056 15.5649C29.2841 15.8295 29.7467 16.2013 29.9239 16.8564C30.1645 16.8706 30.439 16.8006 30.58 17.085V17.2731C30.4521 17.5323 30.2104 17.5082 29.9512 17.4918V17.704C29.9512 18.4279 29.9512 19.1523 29.9512 19.877C29.9393 20.4835 29.7255 21.0688 29.3436 21.5402C28.9617 22.0116 28.4336 22.3422 27.8427 22.4798C27.1696 22.6297 26.4673 22.5803 25.8217 22.3376C24.7959 21.968 23.8051 21.5338 22.9521 20.8383C22.3287 20.3286 21.829 19.7271 21.6955 18.9058C21.6495 18.5472 21.6309 18.1857 21.6398 17.8243C21.6464 17.7665 21.6331 17.7083 21.602 17.6591C21.571 17.61 21.5241 17.573 21.4692 17.5541C21.3187 17.4844 21.1549 17.4483 20.9891 17.4483C20.8232 17.4483 20.6594 17.4844 20.509 17.5541C20.4568 17.5727 20.4125 17.6085 20.3835 17.6556C20.3544 17.7027 20.3424 17.7584 20.3493 17.8133C20.3593 18.1996 20.3395 18.586 20.2902 18.9693C20.1645 19.7195 19.7161 20.2904 19.1441 20.7595C18.076 21.6418 16.8068 22.247 15.4488 22.5213C14.2458 22.7663 12.9587 22.2698 12.3353 21.0679C12.1446 20.7153 12.0425 20.3216 12.0378 19.9207C12.0378 19.1224 12.0378 18.324 12.0378 17.5082C11.7797 17.4743 11.397 17.5804 11.4156 17.1681C11.4342 16.7558 11.8093 16.8892 12.0531 16.8553C12.4698 15.7475 13.3808 15.3975 14.4383 15.286C14.7497 15.2613 15.0622 15.2526 15.3745 15.2597H17.741M14.9807 19.4155C15.0588 19.3726 15.1321 19.3217 15.1995 19.2635C15.9081 18.5606 16.6139 17.8552 17.3167 17.1473C17.3588 17.109 17.3956 17.0653 17.4261 17.0172C17.4595 16.9589 17.4732 16.8913 17.465 16.8246C17.4568 16.7579 17.4271 16.6957 17.3805 16.6473C17.334 16.5988 17.2729 16.5668 17.2066 16.556C17.1403 16.5452 17.0722 16.5562 17.0127 16.5874C16.9534 16.6215 16.8996 16.6642 16.853 16.7142C16.1553 17.4112 15.4587 18.1082 14.7631 18.8052C14.7176 18.8477 14.6782 18.8963 14.6461 18.9496C14.528 19.1585 14.6767 19.4111 14.9818 19.4122L14.9807 19.4155ZM24.5783 19.4155C24.6616 19.3676 24.74 19.3115 24.8123 19.2481C25.5068 18.5592 26.1979 17.8647 26.8902 17.1703C26.9303 17.1317 26.9669 17.0896 26.9996 17.0445C27.0444 16.9869 27.0664 16.9149 27.0616 16.8421C27.0568 16.7693 27.0253 16.7009 26.9733 16.6497C26.9221 16.5942 26.8524 16.5593 26.7772 16.5517C26.7021 16.544 26.6267 16.5641 26.5654 16.6082C26.515 16.6449 26.4681 16.6863 26.4254 16.7317C25.7408 17.4156 25.0573 18.0995 24.3749 18.7834C24.3202 18.8337 24.2724 18.8911 24.2327 18.954C24.119 19.1639 24.2743 19.4155 24.5794 19.41L24.5783 19.4155ZM20.2859 16.9647C20.5106 16.8688 20.7524 16.8193 20.9967 16.8193C21.241 16.8193 21.4828 16.8688 21.7076 16.9647L22.1603 15.9148H19.8364L20.2859 16.9647ZM15.2782 16.8553C15.2127 16.7535 15.1315 16.6627 15.0376 16.5863C14.8987 16.5086 14.762 16.571 14.6505 16.6825C14.2546 17.0806 13.8554 17.4754 13.4606 17.8746C13.2878 18.0495 13.2747 18.2289 13.4125 18.37C13.5503 18.511 13.7406 18.4968 13.9079 18.3295C14.3067 17.9343 14.703 17.5366 15.0967 17.1364C15.1665 17.0457 15.2276 16.9487 15.2793 16.8466L15.2782 16.8553ZM23.2878 18.464C23.3661 18.4237 23.4395 18.3745 23.5066 18.3175C23.8992 17.9336 24.2852 17.5432 24.6723 17.155C24.7085 17.1223 24.7408 17.0856 24.7686 17.0456C24.811 16.9864 24.83 16.9136 24.8222 16.8412C24.8143 16.7687 24.7801 16.7018 24.7259 16.653C24.6789 16.6018 24.6153 16.5691 24.5463 16.5607C24.4774 16.5523 24.4077 16.5687 24.3497 16.6071C24.2917 16.6437 24.2388 16.6879 24.1923 16.7383C23.8277 17.1028 23.4614 17.4674 23.0932 17.8319C23.0384 17.8826 22.9906 17.9404 22.951 18.0036C22.8395 18.2048 23.0002 18.4618 23.2889 18.4553L23.2878 18.464Z" fill="#160F29"/>
<path d="M14.9818 19.4121C14.6767 19.4121 14.528 19.1584 14.6472 18.9462C14.6793 18.8929 14.7187 18.8443 14.7642 18.8018C15.4597 18.1063 16.1549 17.4093 16.8497 16.7109C16.8963 16.6608 16.9501 16.6181 17.0094 16.584C17.0689 16.5528 17.137 16.5418 17.2033 16.5526C17.2696 16.5634 17.3307 16.5954 17.3772 16.6439C17.4238 16.6923 17.4535 16.7545 17.4617 16.8212C17.4699 16.8879 17.4562 16.9555 17.4228 17.0138C17.3923 17.0619 17.3555 17.1056 17.3134 17.1439C16.6091 17.8504 15.9034 18.5558 15.1962 19.2601C15.1302 19.3181 15.0584 19.369 14.9818 19.4121Z" fill="white"/>
<path d="M24.5794 19.4098C24.2743 19.4098 24.119 19.1637 24.2349 18.9505C24.2746 18.8876 24.3224 18.8302 24.3771 18.7799C25.0595 18.0953 25.743 17.4114 26.4276 16.7283C26.4703 16.6828 26.5172 16.6414 26.5676 16.6047C26.6289 16.5607 26.7043 16.5406 26.7794 16.5482C26.8546 16.5559 26.9243 16.5907 26.9755 16.6462C27.0275 16.6974 27.0589 16.7659 27.0638 16.8386C27.0686 16.9114 27.0465 16.9835 27.0018 17.041C26.9691 17.0862 26.9325 17.1282 26.8924 17.1668C26.2001 17.8591 25.509 18.5535 24.8145 19.2447C24.7418 19.3073 24.663 19.3627 24.5794 19.4098Z" fill="white"/>
<path d="M15.2793 16.8464C15.2275 16.9454 15.1667 17.0395 15.0977 17.1274C14.7048 17.5284 14.3085 17.9261 13.909 18.3206C13.7384 18.4879 13.5492 18.4988 13.4136 18.361C13.278 18.2232 13.2889 18.0406 13.4617 17.8656C13.8565 17.4665 14.2557 17.0717 14.6515 16.6736C14.7609 16.5642 14.8998 16.4997 15.0387 16.5773C15.1326 16.6538 15.2138 16.7446 15.2793 16.8464Z" fill="white"/>
<path d="M23.289 18.4551C23.0002 18.4617 22.8395 18.2047 22.9532 17.9936C22.9928 17.9304 23.0406 17.8727 23.0954 17.8219C23.4599 17.4574 23.8263 17.0929 24.1945 16.7283C24.241 16.6779 24.2939 16.6338 24.3519 16.5971C24.4099 16.5588 24.4796 16.5423 24.5485 16.5507C24.6175 16.5592 24.6812 16.5919 24.7281 16.643C24.7823 16.6918 24.8165 16.7588 24.8244 16.8312C24.8323 16.9036 24.8132 16.9764 24.7708 17.0356C24.743 17.0756 24.7107 17.1123 24.6746 17.145C24.2863 17.5398 23.9014 17.9247 23.5088 18.3053C23.4415 18.3636 23.3678 18.4139 23.289 18.4551Z" fill="white"/>
</svg>
