<svg width="19" height="17" viewBox="0 0 19 17" fill="none" xmlns="http://www.w3.org/2000/svg">
<path d="M12 10.5L11.507 10.582C11.4951 10.5104 11.4989 10.4371 11.5182 10.3671C11.5375 10.2971 11.5718 10.2322 11.6187 10.1768C11.6656 10.1214 11.724 10.0769 11.7899 10.0464C11.8557 10.0159 11.9274 10 12 10V10.5ZM1 10.5V11C0.867392 11 0.740215 10.9473 0.646447 10.8536C0.552679 10.7598 0.5 10.6326 0.5 10.5H1ZM3 4.81102e-08H14.36V1H3V4.81102e-08ZM15.56 11H12V10H15.56V11ZM12.493 10.418L13.299 15.253L12.313 15.418L11.507 10.582L12.493 10.418ZM11.82 17H11.607V16H11.82V17ZM8.694 15.442L6.179 11.668L7.011 11.113L9.526 14.887L8.694 15.442ZM4.93 11H1V10H4.93V11ZM0.5 10.5V2.5H1.5V10.5H0.5ZM16.812 2.01L18.012 8.01L17.032 8.206L15.832 2.206L16.812 2.01ZM6.179 11.668C6.04203 11.4625 5.85546 11.2941 5.63775 11.1775C5.42004 11.061 5.17693 11 4.93 11V10C5.34153 9.99999 5.74669 10.1016 6.10954 10.2957C6.47238 10.4899 6.78268 10.7706 7.011 11.113L6.179 11.668ZM13.299 15.253C13.3349 15.4679 13.3235 15.6881 13.2656 15.8982C13.2078 16.1083 13.1048 16.3033 12.964 16.4696C12.8231 16.6359 12.6477 16.7695 12.45 16.8611C12.2522 16.9527 12.0379 17.0001 11.82 17V16C11.8927 16.0001 11.9635 15.9844 12.0294 15.9539C12.0954 15.9234 12.1539 15.879 12.201 15.8236C12.248 15.7682 12.2824 15.7032 12.3017 15.6331C12.3211 15.5631 12.3249 15.4897 12.313 15.418L13.299 15.253ZM15.56 10C15.7819 10 16.0011 9.95079 16.2017 9.85587C16.4023 9.76095 16.5793 9.6227 16.72 9.45109C16.8607 9.27948 16.9616 9.07879 17.0154 8.86348C17.0692 8.64817 17.0755 8.42362 17.032 8.206L18.012 8.01C18.0845 8.37256 18.0746 8.74667 17.9851 9.1054C17.8955 9.46412 17.7276 9.79852 17.4932 10.0845C17.2589 10.3705 16.964 10.6009 16.6299 10.7592C16.2958 10.9175 15.9307 10.9998 15.561 11V10H15.56ZM14.36 4.81102e-08C14.9381 -0.000113313 15.4983 0.200108 15.9454 0.566583C16.3925 0.933059 16.6987 1.44314 16.812 2.01L15.832 2.206C15.764 1.86575 15.5801 1.5596 15.3117 1.3397C15.0433 1.1198 14.707 0.999747 14.36 1V4.81102e-08ZM11.606 17C11.0297 17.0002 10.4623 16.8581 9.95412 16.5863C9.44595 16.3145 9.01276 15.9214 8.693 15.442L9.525 14.887C9.75331 15.2294 10.0626 15.5101 10.4255 15.7043C10.7883 15.8984 11.1935 16 11.605 16V17H11.606ZM3 1C2.60218 1 2.22064 1.15804 1.93934 1.43934C1.65804 1.72064 1.5 2.10218 1.5 2.5H0.5C0.5 1.83696 0.763392 1.20107 1.23223 0.732233C1.70107 0.263392 2.33696 4.81102e-08 3 4.81102e-08V1Z" fill="#160F29" fill-opacity="0.5"/>
</svg>
