<svg width="17" height="17" viewBox="0 0 304 274" xmlns="http://www.w3.org/2000/svg">
<path d="M15.4999 273.5C11.4775 273.5 7.61977 271.902 4.77546 269.058C1.93116 266.213 0.333252 262.356 0.333252 258.333V137C0.333252 132.978 1.93116 129.12 4.77546 126.276C7.61977 123.431 11.4775 121.833 15.4999 121.833H60.9999V273.5H15.4999ZM272.56 106.667H185.033V30.8333C185.033 0.5 138.38 0.5 138.38 0.5C138.38 0.5 138.38 61.1667 122.819 76.3333C114.387 84.5688 101.48 111.945 91.3332 121.833V273.5H252.767C259.97 273.569 266.971 271.117 272.558 266.569C278.144 262.022 281.965 255.664 283.358 248.596L303.075 142.43C303.839 138.008 303.62 133.471 302.434 129.143C301.247 124.815 299.122 120.802 296.209 117.388C293.296 113.974 289.667 111.244 285.58 109.391C281.492 107.538 277.047 106.608 272.56 106.667Z" fill="current"/>
</svg>
