<svg width="71" height="67" viewBox="0 0 41 42" fill="none" xmlns="http://www.w3.org/2000/svg">
<g clip-path="url(#clip0_8_92)">
<path d="M18.8901 0.5H22.0917C22.1324 0.597199 22.2222 0.571565 22.2971 0.579042C23.1606 0.660416 24.0186 0.792379 24.8666 0.974248C35.6108 3.24936 42.7586 13.9637 40.6267 24.7304C39.2938 31.4404 35.4653 36.3175 29.3594 39.4075C29.139 39.5144 28.9315 39.6799 28.6587 39.6671C28.5122 39.2131 28.3752 38.7538 28.2158 38.3042C26.177 32.5448 26.1716 26.794 28.3645 21.0828C29.0791 19.2221 29.9691 17.4298 30.7596 15.598C31.6026 13.6465 30.4697 11.5145 28.3924 11.1385C28.1485 11.0947 28.0939 11.0039 28.0971 10.7796C28.1089 10.0608 28.1057 9.34088 28.0971 8.62203C28.0814 7.25252 27.606 5.92786 26.7471 4.86007C25.8881 3.79227 24.6952 3.04308 23.3593 2.73238C22.0158 2.42797 20.6498 2.60421 19.2944 2.57964C16.1634 2.34572 13.0612 4.86222 12.8965 8.3379C12.859 9.13473 12.8804 9.93475 12.8965 10.7337C12.8965 10.9751 12.8355 11.0841 12.5841 11.1311C12.1036 11.2136 11.6484 11.4048 11.2533 11.69C10.8582 11.9753 10.5337 12.3471 10.3047 12.7769C10.0757 13.2067 9.94824 13.6831 9.93209 14.1697C9.91593 14.6563 10.0115 15.1401 10.2115 15.5841C10.7324 16.79 11.2609 17.9938 11.8161 19.1815C13.227 22.1819 14.0625 25.3275 14.2325 28.6387C14.3759 31.391 14.0404 34.1474 13.2409 36.7853C12.9489 37.7466 12.6323 38.7004 12.3263 39.6586C12.1808 39.6991 12.0664 39.6126 11.9508 39.5517C5.38922 36.3356 1.44946 31.1552 0.220361 23.9422C0.146551 23.5042 0.177573 23.0492 0 22.6294V19.2819C0.097344 19.2424 0.0748799 19.1527 0.0834376 19.0779C0.157248 18.3761 0.256731 17.6797 0.389376 16.9854C1.98753 8.60387 8.9749 1.94731 17.4545 0.72217C17.9327 0.65381 18.4269 0.669832 18.8901 0.5Z" fill="#B65C34"/>
<path d="M19.2901 2.57644C20.6465 2.601 22.0126 2.42476 23.3551 2.72918C24.6909 3.03987 25.8838 3.78907 26.7428 4.85686C27.6017 5.92466 28.0771 7.24931 28.0928 8.61882C28.0992 9.33767 28.1025 10.0576 28.0928 10.7764C28.0928 11.0007 28.1442 11.0915 28.3881 11.1353C30.4655 11.5113 31.5972 13.6433 30.7553 15.5948C29.9648 17.4266 29.0748 19.2189 28.3603 21.0796C26.1673 26.7908 26.1727 32.5416 28.2116 38.301C28.371 38.7506 28.5079 39.2099 28.6544 39.6639C28.3945 39.9961 27.9773 39.9897 27.6307 40.1221C25.8476 40.8107 23.9689 41.2207 22.0607 41.3376C21.9184 41.3462 21.759 41.3152 21.6927 41.4968H21.2927C20.7657 41.367 20.215 41.367 19.6881 41.4968H19.288C19.2713 41.4461 19.2376 41.4028 19.1926 41.3742C19.1475 41.3456 19.0939 41.3334 19.0409 41.3398C18.2846 41.3451 17.5487 41.1764 16.8031 41.0941C16.9421 40.1232 17.0705 39.1501 17.2224 38.1813C17.6417 35.5356 17.8492 32.8608 17.8428 30.1821C17.8428 29.2272 17.891 28.2723 17.784 27.3164C17.738 26.9083 17.6706 26.4704 17.8589 26.0634C18.598 26.197 19.3212 26.4298 20.086 26.3839C21.097 26.4443 22.1108 26.3272 23.0812 26.0378C25.1351 25.4546 26.1449 23.8289 25.8143 21.7258C25.5127 19.8106 25.257 17.888 24.981 15.9697C25.564 15.9077 25.9662 15.614 26.1706 15.0575C26.4476 14.3045 25.8582 13.1936 24.6462 13.3613C24.4836 13.0323 24.5211 12.6638 24.4408 12.3177C24.2761 11.6085 23.6482 11.3447 23.0502 11.7559C22.632 12.0625 22.1555 12.2806 21.6499 12.3968C20.7643 12.5787 19.8482 12.5502 18.9757 12.3135C18.5942 12.1295 18.2232 11.9248 17.8642 11.7004C17.3294 11.3607 16.7046 11.6352 16.5581 12.2483C16.4937 12.52 16.449 12.7959 16.4244 13.074C16.4041 13.3004 16.3174 13.3869 16.0917 13.3293C16.1719 12.6328 16.3452 11.9695 16.7881 11.4066C17.1593 10.9324 17.263 10.3738 17.2855 9.7959C17.3037 9.31738 17.293 8.83458 17.2855 8.3582C17.2694 7.11887 17.4774 5.8868 17.8995 4.72123C18.1702 3.98316 18.4868 3.25897 19.1703 2.78152C19.2313 2.73879 19.2527 2.64693 19.2901 2.57644ZM27.206 11.757C28.0158 11.0242 28.0319 9.59722 27.2392 8.87303C26.806 8.48958 26.3075 8.5291 25.9181 8.97985C25.333 9.65063 25.3298 10.927 25.9117 11.6064C26.285 12.0411 26.7418 12.0945 27.2103 11.7623L27.206 11.757Z" fill="#FEF8F0"/>
<path d="M19.6902 41.5C20.2172 41.3702 20.7678 41.3702 21.2948 41.5H19.6902Z" fill="#FEFEFD"/>
<path d="M16.8052 41.0973C15.3815 40.8365 13.9898 40.4247 12.6537 39.869C12.5328 39.8198 12.3916 39.8006 12.3263 39.6628C12.6323 38.7015 12.9489 37.7509 13.2409 36.7896C14.0409 34.1503 14.3764 31.3925 14.2326 28.6387C14.0667 25.3275 13.227 22.1776 11.8118 19.1772C11.2523 17.9895 10.7239 16.7857 10.2072 15.5798C10.0072 15.1358 9.91165 14.652 9.92781 14.1654C9.94397 13.6788 10.0714 13.2024 10.3004 12.7726C10.5294 12.3428 10.8539 11.971 11.249 11.6858C11.6441 11.4005 12.0993 11.2093 12.5798 11.1268C12.8312 11.0798 12.9008 10.9708 12.8922 10.7294C12.8804 9.93048 12.859 9.12725 12.8922 8.33363C13.0569 4.85795 16.1591 2.34144 19.2902 2.57536C19.2527 2.64266 19.2313 2.73452 19.1736 2.7751C18.49 3.25256 18.1734 3.97675 17.9027 4.71482C17.4806 5.88039 17.2726 7.11246 17.2887 8.35179C17.2887 8.83031 17.3026 9.3131 17.2887 9.78948C17.2663 10.3673 17.1625 10.926 16.7913 11.4002C16.3484 11.9653 16.1752 12.6286 16.0949 13.3228C16.0682 13.3282 16.0425 13.3357 16.0168 13.3399C15.268 13.4382 14.807 13.8825 14.7471 14.5491C14.6904 15.176 15.068 15.7005 15.7826 15.9184C16.0093 15.9878 15.988 16.1 15.9623 16.2719C15.6884 18.1134 15.4381 19.958 15.1439 21.7963C14.9578 22.9595 15.2017 23.9827 15.9548 24.8864C16.4597 25.492 17.1443 25.806 17.8653 26.0613C17.677 26.4683 17.7444 26.9062 17.7904 27.3142C17.8974 28.2755 17.846 29.2251 17.8493 30.18C17.8556 32.8586 17.6481 35.5335 17.2288 38.1792C17.0726 39.1533 16.9443 40.1264 16.8052 41.0973ZM14.9118 8.88372C14.5128 8.52589 14.0646 8.5291 13.6731 8.89226C12.9692 9.54595 12.9799 11.0819 13.6913 11.7217C14.0988 12.087 14.515 12.0806 14.9268 11.7025C15.6895 10.9869 15.6809 9.57906 14.9118 8.88372Z" fill="#F6E9DB"/>
<path d="M24.9853 15.9686C25.2613 17.8912 25.5202 19.8138 25.8186 21.7247C26.1492 23.8279 25.1393 25.4536 23.0855 26.0368C22.1151 26.3261 21.1013 26.4433 20.0903 26.3828C19.0537 25.9385 18.7296 25.0359 18.567 24.0265C18.439 23.2141 18.4099 22.3892 18.4804 21.5698C18.5788 20.3404 18.5948 19.1046 18.6612 17.8731C18.7596 16.0188 18.8751 14.1656 18.9767 12.3113C19.8493 12.5481 20.7654 12.5766 21.651 12.3946C22.1566 12.2785 22.6331 12.0604 23.0513 11.7538C23.6514 11.3425 24.2793 11.6064 24.4419 12.3156C24.5221 12.6617 24.4847 13.0302 24.6473 13.3592C24.674 14.2404 24.8666 15.1002 24.9853 15.9686ZM24.259 17.4148C24.2344 17.0816 24.244 16.7109 23.8856 16.5892C23.4941 16.4578 23.278 16.7804 23.0962 17.057C22.7806 17.5254 22.6492 18.0936 22.7271 18.6528C22.7582 18.8835 22.8341 19.1046 23.0844 19.1869C23.3347 19.2691 23.4973 19.1238 23.6471 18.9668C24.0643 18.5257 24.2247 17.9874 24.259 17.4148Z" fill="#F4CE33"/>
<path d="M18.9746 12.3135C18.8676 14.1677 18.7606 16.0209 18.659 17.8752C18.5927 19.1067 18.5766 20.3426 18.4782 21.572C18.4078 22.3914 18.4369 23.2163 18.5649 24.0287C18.7275 25.038 19.0516 25.9406 20.0881 26.3849C19.3233 26.4352 18.6002 26.2023 17.861 26.0645C17.14 25.8103 16.4554 25.4963 15.9505 24.8896C15.2017 23.9859 14.9535 22.9669 15.1396 21.7995C15.4338 19.9612 15.6841 18.1166 15.958 16.2751C15.9837 16.1032 16.005 15.991 15.7783 15.9216C15.0669 15.708 14.6861 15.1792 14.7428 14.5523C14.8027 13.8857 15.2691 13.4414 16.0125 13.3431C16.0382 13.3431 16.0639 13.3314 16.0906 13.326C16.3121 13.3837 16.403 13.2972 16.4233 13.0708C16.4479 12.7927 16.4926 12.5168 16.557 12.2451C16.7036 11.632 17.3315 11.3575 17.8631 11.6972C18.2221 11.9227 18.5931 12.1285 18.9746 12.3135ZM18.3092 18.577C18.2547 17.9361 18.1092 17.3678 17.6406 16.9352C17.2769 16.5988 16.9475 16.6981 16.8031 17.166C16.6148 17.7759 16.9175 18.7959 17.4107 19.2104C17.7765 19.518 18.1242 19.409 18.2472 18.9433C18.2744 18.8224 18.2951 18.7001 18.3092 18.577Z" fill="#F1B633"/>
<path d="M27.2103 11.7623C26.7418 12.0966 26.285 12.0432 25.916 11.6117C25.334 10.9324 25.3372 9.65598 25.9224 8.9852C26.3117 8.53872 26.8102 8.4992 27.2435 8.87838C27.1724 8.93659 27.1062 9.00053 27.0456 9.06958C26.4711 9.83969 26.5375 10.8758 27.2103 11.7623Z" fill="#3B4C4B"/>
<path d="M24.9853 15.9686C24.8666 15.1002 24.674 14.2404 24.6526 13.3645C25.8646 13.1968 26.454 14.3077 26.177 15.0607C25.9705 15.6129 25.5683 15.9066 24.9853 15.9686Z" fill="#F1B634"/>
<path d="M27.2103 11.7623C26.5375 10.8779 26.4722 9.84503 27.0456 9.07384C27.1062 9.0048 27.1724 8.94085 27.2435 8.88264C28.0361 9.60043 28.0201 11.0274 27.2103 11.7623Z" fill="#536767"/>
<path d="M14.9268 11.7025C14.5149 12.0806 14.0988 12.087 13.6913 11.7217C12.9799 11.0808 12.9692 9.54595 13.6731 8.89226C14.0646 8.5291 14.5128 8.52589 14.9118 8.88371C14.5706 9.12511 14.4401 9.49682 14.3769 9.87066C14.2539 10.5607 14.3352 11.2154 14.9268 11.7025Z" fill="#3B4C4A"/>
<path d="M14.9268 11.7025C14.3352 11.2154 14.2539 10.5607 14.3748 9.87066C14.4401 9.49682 14.5706 9.12297 14.9097 8.88371C15.6809 9.57906 15.6895 10.9869 14.9268 11.7025Z" fill="#536767"/>
<path d="M24.259 17.4148C24.2237 17.9874 24.0643 18.5257 23.6514 18.9626C23.5016 19.1196 23.323 19.2563 23.0887 19.1826C22.8544 19.1089 22.7625 18.8835 22.7314 18.6485C22.6522 18.0899 22.7821 17.5217 23.0962 17.0527C23.2781 16.7761 23.4941 16.4535 23.8856 16.5849C24.244 16.7109 24.2344 17.0816 24.259 17.4148Z" fill="#546865"/>
<path d="M18.3092 18.5769C18.2951 18.7001 18.2744 18.8224 18.2472 18.9433C18.1242 19.409 17.7765 19.518 17.4107 19.2103C16.9175 18.7959 16.6148 17.7759 16.8031 17.166C16.9475 16.6981 17.2769 16.5988 17.6406 16.9352C18.1092 17.3678 18.2547 17.9414 18.3092 18.5769Z" fill="#546764"/>
</g>
<defs>
<clipPath id="clip0_8_92">
<rect width="41" height="41" fill="white" transform="translate(0 0.5)"/>
</clipPath>
</defs>
</svg>
