<svg width="820" height="1180" viewBox="0 0 820 1180" fill="none" xmlns="http://www.w3.org/2000/svg">
<rect width="820" height="1180" fill="#F3F0F9"/>
<g clip-path="url(#clip0_317_683)">
<path d="M279.712 1007.5H285.256C285.327 1007.67 285.482 1007.62 285.612 1007.64C287.107 1007.78 288.593 1008.01 290.062 1008.32C308.667 1012.26 321.045 1030.82 317.354 1049.46C315.045 1061.08 308.416 1069.53 297.842 1074.88C297.46 1075.06 297.101 1075.35 296.628 1075.33C296.375 1074.54 296.138 1073.74 295.862 1072.97C292.331 1062.99 292.322 1053.03 296.119 1043.14C297.357 1039.92 298.898 1036.82 300.267 1033.65C301.726 1030.27 299.765 1026.57 296.167 1025.92C295.745 1025.85 295.65 1025.69 295.656 1025.3C295.676 1024.06 295.671 1022.81 295.656 1021.56C295.629 1019.19 294.806 1016.9 293.318 1015.05C291.831 1013.2 289.765 1011.9 287.452 1011.37C285.125 1010.84 282.759 1011.14 280.412 1011.1C274.99 1010.7 269.618 1015.05 269.333 1021.07C269.268 1022.45 269.305 1023.84 269.333 1025.22C269.333 1025.64 269.227 1025.83 268.792 1025.91C267.96 1026.05 267.172 1026.38 266.487 1026.88C265.803 1027.37 265.241 1028.02 264.845 1028.76C264.448 1029.5 264.227 1030.33 264.199 1031.17C264.171 1032.01 264.337 1032.85 264.683 1033.62C265.585 1035.71 266.501 1037.79 267.462 1039.85C269.905 1045.05 271.352 1050.49 271.647 1056.23C271.895 1060.99 271.314 1065.77 269.929 1070.34C269.424 1072 268.875 1073.65 268.346 1075.31C268.094 1075.38 267.895 1075.23 267.695 1075.13C256.333 1069.56 249.51 1060.59 247.382 1048.09C247.254 1047.34 247.308 1046.55 247 1045.82V1040.02C247.169 1039.96 247.13 1039.8 247.144 1039.67C247.272 1038.46 247.445 1037.25 247.674 1036.05C250.442 1021.53 262.542 1010.01 277.226 1007.88C278.054 1007.77 278.91 1007.79 279.712 1007.5Z" fill="#B65C34"/>
<path d="M280.405 1011.1C282.754 1011.14 285.119 1010.83 287.444 1011.36C289.758 1011.9 291.823 1013.2 293.311 1015.04C294.798 1016.89 295.621 1019.19 295.649 1021.56C295.66 1022.8 295.665 1024.05 295.649 1025.3C295.649 1025.68 295.738 1025.84 296.16 1025.92C299.757 1026.57 301.717 1030.26 300.259 1033.64C298.89 1036.81 297.349 1039.92 296.112 1043.14C292.314 1053.03 292.324 1062.99 295.854 1072.96C296.13 1073.74 296.367 1074.53 296.621 1075.32C296.171 1075.9 295.449 1075.88 294.848 1076.11C291.761 1077.31 288.507 1078.02 285.203 1078.22C284.956 1078.23 284.68 1078.18 284.566 1078.49H283.873C282.96 1078.27 282.007 1078.27 281.094 1078.49H280.401C280.372 1078.41 280.314 1078.33 280.236 1078.28C280.158 1078.23 280.065 1078.21 279.973 1078.22C278.664 1078.23 277.389 1077.94 276.098 1077.8C276.339 1076.12 276.561 1074.43 276.824 1072.75C277.55 1068.17 277.91 1063.54 277.899 1058.9C277.899 1057.25 277.982 1055.59 277.797 1053.94C277.717 1053.23 277.6 1052.47 277.926 1051.77C279.206 1052 280.459 1052.4 281.783 1052.32C283.534 1052.43 285.289 1052.23 286.97 1051.72C290.527 1050.71 292.275 1047.9 291.703 1044.26C291.181 1040.94 290.738 1037.61 290.26 1034.29C291.269 1034.18 291.966 1033.67 292.32 1032.71C292.8 1031.41 291.779 1029.48 289.68 1029.77C289.399 1029.2 289.463 1028.56 289.324 1027.96C289.039 1026.74 287.952 1026.28 286.916 1026.99C286.192 1027.52 285.367 1027.9 284.491 1028.1C282.958 1028.42 281.371 1028.37 279.86 1027.96C279.2 1027.64 278.557 1027.28 277.936 1026.9C277.009 1026.31 275.928 1026.78 275.674 1027.84C275.562 1028.32 275.485 1028.79 275.442 1029.27C275.407 1029.67 275.257 1029.82 274.866 1029.72C275.005 1028.51 275.305 1027.36 276.072 1026.39C276.715 1025.57 276.895 1024.6 276.934 1023.6C276.965 1022.77 276.946 1021.93 276.934 1021.11C276.906 1018.96 277.266 1016.83 277.997 1014.81C278.465 1013.53 279.014 1012.28 280.198 1011.45C280.303 1011.38 280.34 1011.22 280.405 1011.1ZM294.113 1026.99C295.515 1025.72 295.543 1023.25 294.17 1022C293.42 1021.34 292.557 1021.4 291.883 1022.18C290.869 1023.35 290.864 1025.56 291.872 1026.73C292.518 1027.49 293.309 1027.58 294.12 1027L294.113 1026.99Z" fill="#FEF8F0"/>
<path d="M281.098 1078.5C282.01 1078.28 282.964 1078.28 283.876 1078.5H281.098Z" fill="#FEFEFD"/>
<path d="M276.102 1077.8C273.636 1077.35 271.226 1076.64 268.912 1075.68C268.703 1075.59 268.459 1075.56 268.346 1075.32C268.875 1073.65 269.424 1072.01 269.929 1070.34C271.315 1065.77 271.896 1061 271.647 1056.23C271.359 1050.49 269.905 1045.04 267.455 1039.84C266.486 1037.79 265.571 1035.7 264.676 1033.61C264.33 1032.84 264.164 1032.01 264.192 1031.16C264.22 1030.32 264.441 1029.5 264.837 1028.75C265.234 1028.01 265.796 1027.36 266.48 1026.87C267.164 1026.38 267.952 1026.05 268.785 1025.9C269.22 1025.82 269.34 1025.63 269.325 1025.21C269.305 1023.83 269.268 1022.44 269.325 1021.07C269.611 1015.05 274.983 1010.69 280.405 1011.09C280.34 1011.21 280.303 1011.37 280.203 1011.44C279.019 1012.27 278.471 1013.52 278.002 1014.8C277.271 1016.82 276.911 1018.95 276.939 1021.1C276.939 1021.93 276.963 1022.76 276.939 1023.59C276.9 1024.59 276.72 1025.55 276.078 1026.38C275.311 1027.35 275.011 1028.5 274.872 1029.71C274.825 1029.71 274.781 1029.73 274.736 1029.74C273.44 1029.91 272.641 1030.67 272.538 1031.83C272.439 1032.91 273.093 1033.82 274.331 1034.2C274.723 1034.32 274.686 1034.51 274.642 1034.81C274.168 1038 273.734 1041.2 273.225 1044.38C272.903 1046.39 273.325 1048.17 274.629 1049.73C275.503 1050.78 276.689 1051.32 277.937 1051.76C277.611 1052.47 277.728 1053.23 277.808 1053.93C277.993 1055.6 277.904 1057.24 277.91 1058.9C277.921 1063.54 277.561 1068.17 276.835 1072.75C276.565 1074.44 276.342 1076.12 276.102 1077.8ZM272.823 1022.02C272.132 1021.4 271.356 1021.4 270.678 1022.03C269.459 1023.16 269.477 1025.82 270.709 1026.93C271.415 1027.57 272.136 1027.55 272.849 1026.9C274.17 1025.66 274.155 1023.22 272.823 1022.02Z" fill="#F6E9DB"/>
<path d="M290.267 1034.29C290.745 1037.62 291.193 1040.95 291.71 1044.25C292.283 1047.9 290.534 1050.71 286.977 1051.72C285.297 1052.22 283.541 1052.43 281.79 1052.32C279.995 1051.55 279.434 1049.99 279.153 1048.24C278.931 1046.83 278.881 1045.41 279.003 1043.99C279.173 1041.86 279.201 1039.72 279.316 1037.59C279.486 1034.37 279.686 1031.16 279.862 1027.95C281.373 1028.36 282.959 1028.41 284.493 1028.1C285.369 1027.9 286.194 1027.52 286.918 1026.99C287.957 1026.28 289.045 1026.73 289.326 1027.96C289.465 1028.56 289.4 1029.2 289.682 1029.77C289.728 1031.29 290.062 1032.78 290.267 1034.29ZM289.009 1036.79C288.967 1036.21 288.983 1035.57 288.363 1035.36C287.685 1035.13 287.311 1035.69 286.996 1036.17C286.449 1036.98 286.222 1037.97 286.357 1038.94C286.41 1039.33 286.542 1039.72 286.975 1039.86C287.409 1040 287.69 1039.75 287.95 1039.48C288.672 1038.72 288.95 1037.78 289.009 1036.79Z" fill="#F4CE33"/>
<path d="M279.858 1027.96C279.673 1031.17 279.488 1034.38 279.312 1037.59C279.197 1039.72 279.169 1041.86 278.999 1043.99C278.877 1045.41 278.927 1046.84 279.149 1048.24C279.43 1049.99 279.992 1051.56 281.787 1052.33C280.462 1052.41 279.21 1052.01 277.93 1051.77C276.681 1051.33 275.496 1050.79 274.621 1049.74C273.325 1048.17 272.895 1046.41 273.217 1044.38C273.727 1041.2 274.16 1038.01 274.634 1034.82C274.679 1034.52 274.716 1034.33 274.323 1034.21C273.091 1033.84 272.432 1032.92 272.53 1031.83C272.634 1030.68 273.442 1029.91 274.729 1029.74C274.773 1029.74 274.818 1029.72 274.864 1029.71C275.248 1029.81 275.405 1029.66 275.44 1029.27C275.483 1028.79 275.56 1028.31 275.672 1027.84C275.926 1026.78 277.013 1026.3 277.934 1026.89C278.555 1027.28 279.198 1027.64 279.858 1027.96ZM278.706 1038.8C278.612 1037.69 278.36 1036.71 277.548 1035.96C276.919 1035.38 276.348 1035.55 276.098 1036.36C275.772 1037.42 276.296 1039.18 277.15 1039.9C277.784 1040.43 278.386 1040.24 278.599 1039.44C278.646 1039.23 278.682 1039.02 278.706 1038.8Z" fill="#F1B633"/>
<path d="M294.12 1027C293.309 1027.58 292.518 1027.49 291.879 1026.74C290.871 1025.57 290.877 1023.36 291.89 1022.19C292.564 1021.42 293.427 1021.35 294.178 1022.01C294.055 1022.11 293.94 1022.22 293.835 1022.34C292.84 1023.67 292.955 1025.47 294.12 1027Z" fill="#3B4C4B"/>
<path d="M290.267 1034.29C290.062 1032.78 289.728 1031.29 289.691 1029.78C291.79 1029.49 292.811 1031.41 292.331 1032.71C291.973 1033.67 291.277 1034.18 290.267 1034.29Z" fill="#F1B634"/>
<path d="M294.12 1027C292.955 1025.47 292.842 1023.68 293.835 1022.35C293.94 1022.23 294.055 1022.12 294.178 1022.02C295.551 1023.26 295.523 1025.73 294.12 1027Z" fill="#536767"/>
<path d="M272.849 1026.9C272.136 1027.55 271.415 1027.57 270.709 1026.93C269.477 1025.82 269.459 1023.16 270.678 1022.03C271.356 1021.4 272.132 1021.4 272.823 1022.02C272.232 1022.44 272.006 1023.08 271.897 1023.73C271.684 1024.92 271.824 1026.06 272.849 1026.9Z" fill="#3B4C4A"/>
<path d="M272.849 1026.9C271.825 1026.06 271.684 1024.92 271.893 1023.73C272.006 1023.08 272.232 1022.43 272.819 1022.02C274.155 1023.22 274.17 1025.66 272.849 1026.9Z" fill="#536767"/>
<path d="M289.01 1036.79C288.948 1037.78 288.672 1038.72 287.957 1039.47C287.698 1039.74 287.389 1039.98 286.983 1039.85C286.577 1039.73 286.418 1039.33 286.364 1038.93C286.227 1037.96 286.452 1036.98 286.996 1036.16C287.311 1035.69 287.685 1035.13 288.363 1035.35C288.984 1035.57 288.967 1036.21 289.01 1036.79Z" fill="#546865"/>
<path d="M278.706 1038.8C278.682 1039.02 278.646 1039.23 278.599 1039.44C278.386 1040.24 277.784 1040.43 277.15 1039.9C276.296 1039.18 275.772 1037.42 276.098 1036.36C276.348 1035.55 276.919 1035.38 277.548 1035.96C278.36 1036.71 278.612 1037.7 278.706 1038.8Z" fill="#546764"/>
</g>
<path d="M363.684 1059L356.809 1036.6H356.633C356.659 1037.13 356.698 1037.94 356.75 1039.02C356.815 1040.09 356.874 1041.23 356.926 1042.44C356.978 1043.65 357.004 1044.74 357.004 1045.72V1059H351.594V1030.45H359.836L366.594 1052.28H366.711L373.879 1030.45H382.121V1059H376.477V1045.48C376.477 1044.59 376.49 1043.55 376.516 1042.38C376.555 1041.21 376.6 1040.09 376.652 1039.04C376.704 1037.97 376.743 1037.17 376.77 1036.64H376.594L369.23 1059H363.684ZM415.246 1044.68C415.246 1046.88 414.973 1048.89 414.426 1050.7C413.879 1052.5 413.046 1054.05 411.926 1055.35C410.819 1056.65 409.413 1057.65 407.707 1058.36C406.001 1059.05 403.983 1059.39 401.652 1059.39C399.322 1059.39 397.303 1059.05 395.598 1058.36C393.892 1057.65 392.479 1056.65 391.359 1055.35C390.253 1054.05 389.426 1052.49 388.879 1050.68C388.332 1048.87 388.059 1046.86 388.059 1044.64C388.059 1041.69 388.54 1039.12 389.504 1036.93C390.48 1034.73 391.978 1033.02 393.996 1031.81C396.014 1030.6 398.579 1030 401.691 1030C404.79 1030 407.336 1030.6 409.328 1031.81C411.333 1033.02 412.818 1034.73 413.781 1036.93C414.758 1039.13 415.246 1041.71 415.246 1044.68ZM394.406 1044.68C394.406 1046.68 394.654 1048.39 395.148 1049.84C395.656 1051.27 396.444 1052.38 397.512 1053.16C398.579 1053.93 399.96 1054.31 401.652 1054.31C403.371 1054.31 404.764 1053.93 405.832 1053.16C406.9 1052.38 407.674 1051.27 408.156 1049.84C408.651 1048.39 408.898 1046.68 408.898 1044.68C408.898 1041.69 408.339 1039.33 407.219 1037.61C406.099 1035.89 404.257 1035.04 401.691 1035.04C399.986 1035.04 398.592 1035.43 397.512 1036.21C396.444 1036.98 395.656 1038.08 395.148 1039.53C394.654 1040.96 394.406 1042.68 394.406 1044.68ZM447.082 1044.68C447.082 1046.88 446.809 1048.89 446.262 1050.7C445.715 1052.5 444.882 1054.05 443.762 1055.35C442.655 1056.65 441.249 1057.65 439.543 1058.36C437.837 1059.05 435.819 1059.39 433.488 1059.39C431.158 1059.39 429.139 1059.05 427.434 1058.36C425.728 1057.65 424.315 1056.65 423.195 1055.35C422.089 1054.05 421.262 1052.49 420.715 1050.68C420.168 1048.87 419.895 1046.86 419.895 1044.64C419.895 1041.69 420.376 1039.12 421.34 1036.93C422.316 1034.73 423.814 1033.02 425.832 1031.81C427.85 1030.6 430.415 1030 433.527 1030C436.626 1030 439.172 1030.6 441.164 1031.81C443.169 1033.02 444.654 1034.73 445.617 1036.93C446.594 1039.13 447.082 1041.71 447.082 1044.68ZM426.242 1044.68C426.242 1046.68 426.49 1048.39 426.984 1049.84C427.492 1051.27 428.28 1052.38 429.348 1053.16C430.415 1053.93 431.796 1054.31 433.488 1054.31C435.207 1054.31 436.6 1053.93 437.668 1053.16C438.736 1052.38 439.51 1051.27 439.992 1049.84C440.487 1048.39 440.734 1046.68 440.734 1044.68C440.734 1041.69 440.174 1039.33 439.055 1037.61C437.935 1035.89 436.092 1035.04 433.527 1035.04C431.822 1035.04 430.428 1035.43 429.348 1036.21C428.28 1036.98 427.492 1038.08 426.984 1039.53C426.49 1040.96 426.242 1042.68 426.242 1044.68ZM476.691 1044.45C476.691 1047.67 476.073 1050.35 474.836 1052.52C473.612 1054.66 471.835 1056.29 469.504 1057.38C467.173 1058.46 464.367 1059 461.086 1059H453V1030.45H461.965C464.96 1030.45 467.557 1030.98 469.758 1032.05C471.958 1033.1 473.664 1034.67 474.875 1036.75C476.086 1038.82 476.691 1041.39 476.691 1044.45ZM470.402 1044.61C470.402 1042.5 470.09 1040.76 469.465 1039.41C468.853 1038.04 467.941 1037.03 466.73 1036.38C465.533 1035.73 464.048 1035.41 462.277 1035.41H459.055V1054H461.652C464.608 1054 466.802 1053.21 468.234 1051.64C469.68 1050.06 470.402 1047.72 470.402 1044.61ZM505.852 1030.45V1048.92C505.852 1050.89 505.415 1052.67 504.543 1054.25C503.684 1055.83 502.375 1057.08 500.617 1058C498.872 1058.93 496.672 1059.39 494.016 1059.39C490.24 1059.39 487.362 1058.43 485.383 1056.5C483.404 1054.57 482.414 1052.02 482.414 1048.84V1030.45H488.449V1047.93C488.449 1050.28 488.931 1051.94 489.895 1052.89C490.858 1053.84 492.284 1054.31 494.172 1054.31C495.5 1054.31 496.574 1054.08 497.395 1053.63C498.228 1053.17 498.84 1052.47 499.23 1051.52C499.621 1050.57 499.816 1049.36 499.816 1047.89V1030.45H505.852ZM524.973 1035.07C523.814 1035.07 522.785 1035.3 521.887 1035.76C521.001 1036.2 520.253 1036.85 519.641 1037.69C519.042 1038.54 518.586 1039.56 518.273 1040.76C517.961 1041.96 517.805 1043.3 517.805 1044.8C517.805 1046.82 518.052 1048.54 518.547 1049.98C519.055 1051.4 519.836 1052.48 520.891 1053.24C521.945 1053.98 523.306 1054.35 524.973 1054.35C526.132 1054.35 527.29 1054.22 528.449 1053.96C529.621 1053.7 530.891 1053.33 532.258 1052.85V1057.93C530.995 1058.45 529.751 1058.82 528.527 1059.04C527.303 1059.27 525.93 1059.39 524.406 1059.39C521.464 1059.39 519.042 1058.79 517.141 1057.57C515.253 1056.35 513.853 1054.64 512.941 1052.46C512.03 1050.26 511.574 1047.69 511.574 1044.76C511.574 1042.6 511.867 1040.62 512.453 1038.82C513.039 1037.03 513.898 1035.47 515.031 1034.16C516.164 1032.84 517.564 1031.83 519.23 1031.11C520.897 1030.39 522.811 1030.04 524.973 1030.04C526.392 1030.04 527.811 1030.22 529.23 1030.58C530.663 1030.93 532.03 1031.42 533.332 1032.05L531.379 1036.97C530.311 1036.46 529.237 1036.02 528.156 1035.64C527.076 1035.26 526.014 1035.07 524.973 1035.07ZM561.32 1059H554.445L546.965 1046.97L544.406 1048.8V1059H538.352V1030.45H544.406V1043.51C544.81 1042.95 545.207 1042.39 545.598 1041.83C545.988 1041.27 546.385 1040.71 546.789 1040.15L554.523 1030.45H561.242L551.281 1043.08L561.32 1059Z" fill="#160F29"/>
<path d="M770 40H50L51 1140H770V40Z" stroke="#160F29" stroke-width="3"/>
<path d="M287.719 407.094C287.719 410.615 287.281 413.823 286.406 416.719C285.531 419.594 284.198 422.073 282.406 424.156C280.635 426.24 278.385 427.844 275.656 428.969C272.927 430.073 269.698 430.625 265.969 430.625C262.24 430.625 259.01 430.073 256.281 428.969C253.552 427.844 251.292 426.24 249.5 424.156C247.729 422.073 246.406 419.583 245.531 416.688C244.656 413.792 244.219 410.573 244.219 407.031C244.219 402.302 244.99 398.188 246.531 394.688C248.094 391.167 250.49 388.438 253.719 386.5C256.948 384.562 261.052 383.594 266.031 383.594C270.99 383.594 275.062 384.562 278.25 386.5C281.458 388.438 283.833 391.167 285.375 394.688C286.938 398.208 287.719 402.344 287.719 407.094ZM254.375 407.094C254.375 410.281 254.771 413.031 255.562 415.344C256.375 417.635 257.635 419.406 259.344 420.656C261.052 421.885 263.26 422.5 265.969 422.5C268.719 422.5 270.948 421.885 272.656 420.656C274.365 419.406 275.604 417.635 276.375 415.344C277.167 413.031 277.562 410.281 277.562 407.094C277.562 402.302 276.667 398.531 274.875 395.781C273.083 393.031 270.135 391.656 266.031 391.656C263.302 391.656 261.073 392.281 259.344 393.531C257.635 394.76 256.375 396.531 255.562 398.844C254.771 401.135 254.375 403.885 254.375 407.094ZM297.188 430V384.312H326.062V392.312H306.875V401.844H310.688C314.979 401.844 318.5 402.438 321.25 403.625C324.021 404.812 326.062 406.458 327.375 408.562C328.708 410.646 329.375 413.031 329.375 415.719C329.375 420.24 327.865 423.75 324.844 426.25C321.844 428.75 317.062 430 310.5 430H297.188ZM306.875 422.062H310.125C313.062 422.062 315.375 421.594 317.062 420.656C318.75 419.698 319.594 418.052 319.594 415.719C319.594 414.094 319.177 412.854 318.344 412C317.531 411.146 316.354 410.562 314.812 410.25C313.292 409.938 311.469 409.781 309.344 409.781H306.875V422.062ZM374.219 430H364.562V392.375H353.375C353.125 394.333 352.854 396.469 352.562 398.781C352.271 401.094 351.969 403.427 351.656 405.781C351.344 408.135 351.01 410.375 350.656 412.5C350.323 414.625 349.99 416.49 349.656 418.094C349.115 420.76 348.375 423.031 347.438 424.906C346.521 426.76 345.26 428.177 343.656 429.156C342.073 430.135 340 430.625 337.438 430.625C336.583 430.625 335.76 430.562 334.969 430.438C334.198 430.312 333.479 430.146 332.812 429.938V422C333.354 422.188 333.896 422.344 334.438 422.469C334.979 422.573 335.573 422.625 336.219 422.625C337.052 422.625 337.74 422.354 338.281 421.812C338.844 421.25 339.344 420.302 339.781 418.969C340.219 417.615 340.656 415.75 341.094 413.375C341.281 412.333 341.531 410.865 341.844 408.969C342.156 407.052 342.51 404.812 342.906 402.25C343.302 399.667 343.708 396.854 344.125 393.812C344.562 390.771 344.979 387.604 345.375 384.312H374.219V430ZM427.219 407.094C427.219 410.615 426.781 413.823 425.906 416.719C425.031 419.594 423.698 422.073 421.906 424.156C420.135 426.24 417.885 427.844 415.156 428.969C412.427 430.073 409.198 430.625 405.469 430.625C401.74 430.625 398.51 430.073 395.781 428.969C393.052 427.844 390.792 426.24 389 424.156C387.229 422.073 385.906 419.583 385.031 416.688C384.156 413.792 383.719 410.573 383.719 407.031C383.719 402.302 384.49 398.188 386.031 394.688C387.594 391.167 389.99 388.438 393.219 386.5C396.448 384.562 400.552 383.594 405.531 383.594C410.49 383.594 414.562 384.562 417.75 386.5C420.958 388.438 423.333 391.167 424.875 394.688C426.438 398.208 427.219 402.344 427.219 407.094ZM393.875 407.094C393.875 410.281 394.271 413.031 395.062 415.344C395.875 417.635 397.135 419.406 398.844 420.656C400.552 421.885 402.76 422.5 405.469 422.5C408.219 422.5 410.448 421.885 412.156 420.656C413.865 419.406 415.104 417.635 415.875 415.344C416.667 413.031 417.062 410.281 417.062 407.094C417.062 402.302 416.167 398.531 414.375 395.781C412.583 393.031 409.635 391.656 405.531 391.656C402.802 391.656 400.573 392.281 398.844 393.531C397.135 394.76 395.875 396.531 395.062 398.844C394.271 401.135 393.875 403.885 393.875 407.094ZM447.188 406.25L431.844 384.312H441.812L456.594 406.438V384.312H465.625V406.438L480.406 384.312H490.406L475.031 406.25L491.281 430H480.906L465.625 406.844V430H456.594V406.844L441.312 430H430.938L447.188 406.25ZM534.312 430H523.312L506.75 406.844V430H497.062V384.312H506.75V406.438L523.125 384.312H533.438L516.781 406.25L534.312 430ZM568.031 430L564.719 419.125H548.062L544.75 430H534.312L550.438 384.125H562.281L578.469 430H568.031ZM562.406 411L559.094 400.375C558.885 399.667 558.604 398.76 558.25 397.656C557.917 396.531 557.573 395.396 557.219 394.25C556.885 393.083 556.615 392.073 556.406 391.219C556.198 392.073 555.906 393.135 555.531 394.406C555.177 395.656 554.833 396.844 554.5 397.969C554.167 399.094 553.927 399.896 553.781 400.375L550.5 411H562.406ZM234.438 494.094C234.438 497.615 234 500.823 233.125 503.719C232.25 506.594 230.917 509.073 229.125 511.156C227.354 513.24 225.104 514.844 222.375 515.969C219.646 517.073 216.417 517.625 212.688 517.625C208.958 517.625 205.729 517.073 203 515.969C200.271 514.844 198.01 513.24 196.219 511.156C194.448 509.073 193.125 506.583 192.25 503.688C191.375 500.792 190.938 497.573 190.938 494.031C190.938 489.302 191.708 485.188 193.25 481.688C194.812 478.167 197.208 475.438 200.438 473.5C203.667 471.562 207.771 470.594 212.75 470.594C217.708 470.594 221.781 471.562 224.969 473.5C228.177 475.438 230.552 478.167 232.094 481.688C233.656 485.208 234.438 489.344 234.438 494.094ZM201.094 494.094C201.094 497.281 201.49 500.031 202.281 502.344C203.094 504.635 204.354 506.406 206.062 507.656C207.771 508.885 209.979 509.5 212.688 509.5C215.438 509.5 217.667 508.885 219.375 507.656C221.083 506.406 222.323 504.635 223.094 502.344C223.885 500.031 224.281 497.281 224.281 494.094C224.281 489.302 223.385 485.531 221.594 482.781C219.802 480.031 216.854 478.656 212.75 478.656C210.021 478.656 207.792 479.281 206.062 480.531C204.354 481.76 203.094 483.531 202.281 485.844C201.49 488.135 201.094 490.885 201.094 494.094ZM261.531 517H251.844V479.375H239.438V471.312H273.938V479.375H261.531V517ZM300.375 478.719C298.521 478.719 296.875 479.083 295.438 479.812C294.021 480.521 292.823 481.552 291.844 482.906C290.885 484.26 290.156 485.896 289.656 487.812C289.156 489.729 288.906 491.885 288.906 494.281C288.906 497.51 289.302 500.271 290.094 502.562C290.906 504.833 292.156 506.573 293.844 507.781C295.531 508.969 297.708 509.562 300.375 509.562C302.229 509.562 304.083 509.354 305.938 508.938C307.812 508.521 309.844 507.927 312.031 507.156V515.281C310.01 516.115 308.021 516.708 306.062 517.062C304.104 517.438 301.906 517.625 299.469 517.625C294.76 517.625 290.885 516.656 287.844 514.719C284.823 512.76 282.583 510.031 281.125 506.531C279.667 503.01 278.938 498.906 278.938 494.219C278.938 490.76 279.406 487.594 280.344 484.719C281.281 481.844 282.656 479.354 284.469 477.25C286.281 475.146 288.521 473.521 291.188 472.375C293.854 471.229 296.917 470.656 300.375 470.656C302.646 470.656 304.917 470.948 307.188 471.531C309.479 472.094 311.667 472.875 313.75 473.875L310.625 481.75C308.917 480.938 307.198 480.229 305.469 479.625C303.74 479.021 302.042 478.719 300.375 478.719ZM358.469 471.312L344.312 503.625C343.042 506.542 341.688 509.052 340.25 511.156C338.812 513.24 336.99 514.844 334.781 515.969C332.573 517.073 329.677 517.625 326.094 517.625C324.969 517.625 323.75 517.542 322.438 517.375C321.125 517.229 319.906 517 318.781 516.688V508.375C319.823 508.771 320.948 509.062 322.156 509.25C323.385 509.417 324.542 509.5 325.625 509.5C327.042 509.5 328.188 509.26 329.062 508.781C329.938 508.302 330.635 507.656 331.156 506.844C331.677 506.031 332.115 505.125 332.469 504.125L316.656 471.312H326.906L335.438 491.094C335.625 491.51 335.865 492.073 336.156 492.781C336.469 493.469 336.771 494.177 337.062 494.906C337.375 495.615 337.615 496.24 337.781 496.781H338.125C338.292 496.26 338.51 495.635 338.781 494.906C339.073 494.156 339.375 493.396 339.688 492.625C340 491.833 340.281 491.125 340.531 490.5L348.469 471.312H358.469ZM381.844 517H372.156V479.375H359.75V471.312H394.25V479.375H381.844V517ZM420.688 478.719C418.833 478.719 417.188 479.083 415.75 479.812C414.333 480.521 413.135 481.552 412.156 482.906C411.198 484.26 410.469 485.896 409.969 487.812C409.469 489.729 409.219 491.885 409.219 494.281C409.219 497.51 409.615 500.271 410.406 502.562C411.219 504.833 412.469 506.573 414.156 507.781C415.844 508.969 418.021 509.562 420.688 509.562C422.542 509.562 424.396 509.354 426.25 508.938C428.125 508.521 430.156 507.927 432.344 507.156V515.281C430.323 516.115 428.333 516.708 426.375 517.062C424.417 517.438 422.219 517.625 419.781 517.625C415.073 517.625 411.198 516.656 408.156 514.719C405.135 512.76 402.896 510.031 401.438 506.531C399.979 503.01 399.25 498.906 399.25 494.219C399.25 490.76 399.719 487.594 400.656 484.719C401.594 481.844 402.969 479.354 404.781 477.25C406.594 475.146 408.833 473.521 411.5 472.375C414.167 471.229 417.229 470.656 420.688 470.656C422.958 470.656 425.229 470.948 427.5 471.531C429.792 472.094 431.979 472.875 434.062 473.875L430.938 481.75C429.229 480.938 427.51 480.229 425.781 479.625C424.052 479.021 422.354 478.719 420.688 478.719ZM459.719 517H450.031V479.375H437.625V471.312H472.125V479.375H459.719V517ZM479.156 471.312H493.375C499.458 471.312 504.062 472.167 507.188 473.875C510.312 475.583 511.875 478.583 511.875 482.875C511.875 484.604 511.594 486.167 511.031 487.562C510.49 488.958 509.698 490.104 508.656 491C507.615 491.896 506.344 492.479 504.844 492.75V493.062C506.365 493.375 507.74 493.917 508.969 494.688C510.198 495.438 511.177 496.542 511.906 498C512.656 499.438 513.031 501.354 513.031 503.75C513.031 506.521 512.354 508.896 511 510.875C509.646 512.854 507.708 514.375 505.188 515.438C502.688 516.479 499.708 517 496.25 517H479.156V471.312ZM488.844 489.406H494.469C497.281 489.406 499.229 488.969 500.312 488.094C501.396 487.198 501.938 485.885 501.938 484.156C501.938 482.406 501.292 481.156 500 480.406C498.729 479.635 496.708 479.25 493.938 479.25H488.844V489.406ZM488.844 497.094V509H495.156C498.073 509 500.104 508.438 501.25 507.312C502.396 506.188 502.969 504.677 502.969 502.781C502.969 501.656 502.719 500.667 502.219 499.812C501.719 498.958 500.875 498.292 499.688 497.812C498.521 497.333 496.906 497.094 494.844 497.094H488.844ZM558.844 471.312L544.688 503.625C543.417 506.542 542.062 509.052 540.625 511.156C539.188 513.24 537.365 514.844 535.156 515.969C532.948 517.073 530.052 517.625 526.469 517.625C525.344 517.625 524.125 517.542 522.812 517.375C521.5 517.229 520.281 517 519.156 516.688V508.375C520.198 508.771 521.323 509.062 522.531 509.25C523.76 509.417 524.917 509.5 526 509.5C527.417 509.5 528.562 509.26 529.438 508.781C530.312 508.302 531.01 507.656 531.531 506.844C532.052 506.031 532.49 505.125 532.844 504.125L517.031 471.312H527.281L535.812 491.094C536 491.51 536.24 492.073 536.531 492.781C536.844 493.469 537.146 494.177 537.438 494.906C537.75 495.615 537.99 496.24 538.156 496.781H538.5C538.667 496.26 538.885 495.635 539.156 494.906C539.448 494.156 539.75 493.396 540.062 492.625C540.375 491.833 540.656 491.125 540.906 490.5L548.844 471.312H558.844ZM590.906 517H564.594V471.312H590.906V479.25H574.281V489.281H589.75V497.219H574.281V509H590.906V517ZM618.094 517H608.406V479.375H596V471.312H630.5V479.375H618.094V517Z" fill="#160F29"/>
<g clip-path="url(#clip1_317_683)">
<path d="M424.651 690.228C444.584 690.424 453.779 629.343 451.286 627.217C449.045 625.31 438.777 645.078 435.68 643.957C432.344 642.757 428.077 610.473 424.132 610.473C420.418 610.473 417.411 642.678 414.228 643.747C411.225 644.758 398.694 627.347 396.447 629.102C393.67 631.272 404.717 690.03 424.651 690.228Z" fill="#160F29"/>
<path d="M423.958 694.452C418.861 694.478 414.318 691.441 413.464 691.779C412.415 692.19 416.598 703.348 424.154 703.383C431.712 703.419 435.183 691.82 434.246 691.42C433.398 691.052 429.053 694.427 423.958 694.452Z" fill="#160F29"/>
<path d="M365.346 674.101C362.008 672.901 357.743 640.617 353.796 640.617C350.081 640.617 347.077 672.822 343.893 673.891C340.889 674.901 328.36 657.49 326.112 659.246C323.336 661.418 334.382 720.176 354.318 720.372C374.252 720.57 383.447 659.486 380.954 657.361C378.709 655.454 368.441 675.224 365.346 674.101Z" fill="#160F29"/>
<path d="M353.624 724.596C348.528 724.622 343.984 721.585 343.13 721.923C342.08 722.334 346.266 733.492 353.819 733.527C361.375 733.563 364.851 721.964 363.911 721.566C363.064 721.196 358.719 724.573 353.624 724.596Z" fill="#160F29"/>
</g>
<path d="M386.625 771.875C443.476 771.875 489.562 725.788 489.562 668.938C489.562 612.087 443.476 566 386.625 566C329.774 566 283.688 612.087 283.688 668.938C283.688 725.788 329.774 771.875 386.625 771.875Z" stroke="#160F29" stroke-width="10" stroke-miterlimit="10" stroke-linecap="round" stroke-linejoin="round"/>
<path d="M535.312 817.625L459.436 741.749" stroke="#160F29" stroke-width="10" stroke-miterlimit="10" stroke-linecap="round" stroke-linejoin="round"/>
<defs>
<clipPath id="clip0_317_683">
<rect width="71" height="71" fill="white" transform="translate(247 1007.5)"/>
</clipPath>
<clipPath id="clip1_317_683">
<rect width="126" height="126" fill="white" transform="translate(325.688 609)"/>
</clipPath>
</defs>
</svg>
